<?xml version="1.0" standalone="no"?>
<!DOCTYPE svg PUBLIC "-//W3C//DTD SVG 20010904//EN"
 "http://www.w3.org/TR/2001/REC-SVG-20010904/DTD/svg10.dtd">
<svg version="1.0" xmlns="http://www.w3.org/2000/svg"
 width="1280.000000pt" height="1280.000000pt" viewBox="0 0 1280.000000 1280.000000"
 preserveAspectRatio="xMidYMid meet">
<metadata>
Created by potrace 1.14, written by Peter Selinger 2001-2017
</metadata>
<g transform="translate(0.000000,1280.000000) scale(0.100000,-0.100000)"
fill="#000000" stroke="none">
<path d="M6339 11226 c-2 -2 -40 -7 -84 -10 -96 -8 -147 -13 -199 -20 -21 -3
-57 -8 -80 -11 -119 -17 -289 -50 -436 -86 -150 -37 -507 -149 -584 -183 -17
-8 -83 -36 -146 -63 -146 -61 -385 -182 -518 -261 -56 -34 -107 -62 -112 -62
-6 0 -10 -4 -10 -8 0 -5 -12 -15 -27 -23 -16 -8 -30 -16 -33 -19 -16 -17 -62
-40 -70 -35 -5 3 -8 0 -5 -7 6 -15 -42 -41 -58 -31 -6 3 -7 2 -4 -4 8 -12 -19
-36 -90 -82 -29 -19 -53 -37 -53 -41 0 -11 -60 -41 -70 -35 -5 3 -7 0 -4 -9 6
-16 -28 -40 -41 -28 -5 4 -5 2 -2 -4 8 -14 -17 -37 -27 -26 -4 4 -6 0 -4 -8 2
-9 -4 -14 -14 -14 -10 1 -15 -2 -13 -7 7 -10 -53 -55 -67 -51 -5 1 -7 -1 -4
-6 10 -17 -44 -54 -70 -48 -14 4 -24 2 -24 -4 0 -5 3 -9 8 -9 26 4 33 -2 17
-18 -14 -14 -18 -14 -26 -2 -8 12 -9 11 -7 -2 3 -14 -141 -169 -157 -169 -4 0
-2 7 5 14 9 11 9 19 0 33 -10 16 -10 16 -5 -4 3 -12 1 -24 -4 -27 -6 -4 -8
-13 -5 -20 3 -8 -6 -22 -21 -33 -14 -10 -34 -25 -43 -33 -10 -8 -13 -12 -8 -7
6 4 15 7 20 7 6 0 0 -7 -12 -16 -18 -13 -26 -13 -38 -3 -12 10 -13 9 -8 -5 3
-9 10 -16 15 -16 5 0 -5 -16 -22 -35 -27 -29 -35 -33 -47 -22 -13 10 -14 9 -4
-9 9 -18 6 -25 -24 -53 -18 -18 -34 -38 -34 -44 0 -7 -4 -6 -10 3 -8 12 -10
11 -10 -7 0 -12 -9 -28 -20 -36 -11 -8 -17 -17 -12 -22 4 -4 -1 -5 -11 -2 -11
4 -16 3 -12 -3 7 -12 -12 -50 -26 -50 -6 0 -7 5 -3 12 4 7 3 8 -4 4 -6 -4 -9
-12 -7 -19 3 -7 -4 -25 -15 -42 -11 -16 -20 -25 -20 -20 0 6 -9 -8 -20 -30
-11 -22 -19 -36 -20 -32 0 4 -6 2 -14 -5 -7 -7 -11 -19 -8 -27 4 -10 1 -13 -9
-9 -9 4 -15 -1 -16 -11 -2 -18 -82 -143 -95 -149 -5 -2 -8 -8 -8 -13 0 -9 -49
-88 -60 -99 -4 -3 -15 -23 -27 -45 -11 -22 -37 -69 -57 -105 -20 -36 -47 -85
-59 -110 -12 -25 -25 -46 -29 -48 -5 -2 -8 -8 -8 -13 0 -5 -18 -49 -40 -97
-69 -148 -77 -166 -94 -204 -9 -20 -16 -42 -16 -50 0 -8 -4 -18 -8 -24 -5 -5
-17 -31 -26 -59 -10 -27 -22 -59 -27 -70 -22 -48 -121 -374 -135 -445 -3 -14
-9 -41 -14 -60 -12 -45 -49 -224 -56 -270 -6 -43 -13 -78 -18 -105 -2 -11 -7
-49 -11 -85 -4 -36 -9 -72 -10 -82 -2 -9 -7 -54 -10 -100 -4 -45 -9 -99 -11
-118 -4 -47 -4 -531 1 -600 10 -153 44 -411 71 -550 9 -41 18 -88 20 -104 17
-91 80 -324 129 -476 128 -389 313 -773 537 -1112 77 -117 259 -364 282 -383
7 -5 19 -20 27 -32 50 -72 350 -382 478 -493 35 -30 69 -60 75 -65 93 -86 398
-308 552 -402 327 -200 602 -329 977 -458 54 -18 99 -33 100 -33 1 0 31 -9 67
-20 60 -18 248 -66 295 -75 11 -2 31 -7 45 -10 36 -9 178 -36 225 -42 44 -7
62 -9 145 -19 30 -4 66 -9 80 -11 121 -21 720 -28 895 -11 50 5 104 10 120 12
54 5 129 14 155 19 14 3 41 7 60 10 288 44 661 145 933 252 67 26 124 48 127
48 31 6 410 194 498 247 34 21 64 38 67 38 9 0 306 193 331 215 6 6 21 17 34
25 34 23 168 126 204 157 18 16 57 48 86 73 156 131 388 364 505 505 28 33 52
62 55 65 3 3 21 25 40 50 19 25 37 47 40 50 40 38 245 341 344 510 61 102 189
356 244 480 76 174 196 516 227 650 2 8 17 71 33 140 17 69 34 145 38 170 4
25 8 47 9 50 10 49 18 90 21 113 2 15 6 44 8 65 3 20 8 62 12 92 3 30 7 69 9
85 20 159 28 661 13 830 -13 144 -38 342 -51 410 -5 22 -17 106 -18 117 0 4
-5 22 -10 40 -5 18 -12 47 -15 63 -27 158 -132 497 -226 735 -51 128 -201 440
-260 542 -18 31 -48 83 -67 115 -60 104 -232 356 -276 407 -5 6 -23 29 -39 51
-31 41 -154 190 -216 259 -58 65 -283 288 -344 341 -32 28 -70 62 -86 76 -16
14 -45 39 -66 55 -20 16 -60 47 -88 70 -325 260 -772 511 -1206 678 -225 86
-600 192 -780 220 -19 3 -75 12 -125 20 -89 15 -138 22 -225 31 -25 3 -65 8
-90 11 -49 7 -715 15 -721 10z"/>
<path d="M3236 10242 c-3 -5 1 -9 9 -9 8 0 12 4 9 9 -3 4 -7 8 -9 8 -2 0 -6
-4 -9 -8z"/>
<path d="M3570 10220 c0 -5 5 -10 11 -10 5 0 7 5 4 10 -3 6 -8 10 -11 10 -2 0
-4 -4 -4 -10z"/>
<path d="M3276 10207 c3 -10 9 -15 12 -12 3 3 0 11 -7 18 -10 9 -11 8 -5 -6z"/>
<path d="M3490 10179 c0 -5 5 -7 10 -4 6 3 10 8 10 11 0 2 -4 4 -10 4 -5 0
-10 -5 -10 -11z"/>
<path d="M3573 10169 c-2 -23 3 -25 10 -4 4 8 3 16 -1 19 -4 3 -9 -4 -9 -15z"/>
<path d="M3633 10183 c4 -3 1 -13 -6 -22 -11 -14 -10 -14 5 -2 16 12 16 31 1
31 -4 0 -3 -3 0 -7z"/>
<path d="M3573 10127 c0 -19 34 -18 49 1 12 15 11 16 -4 3 -13 -10 -21 -11
-31 -2 -10 8 -14 7 -14 -2z"/>
<path d="M3350 10122 c0 -5 7 -9 15 -9 8 0 12 4 9 9 -3 4 -9 8 -15 8 -5 0 -9
-4 -9 -8z"/>
<path d="M3450 10121 c0 -6 4 -13 10 -16 6 -3 7 1 4 9 -7 18 -14 21 -14 7z"/>
<path d="M3359 10095 c-1 -3 -2 -8 -3 -12 -1 -5 -5 -15 -10 -23 -7 -12 -6 -13
4 -3 13 12 23 43 14 43 -2 0 -5 -2 -5 -5z"/>
<path d="M3436 10081 c-3 -4 6 -7 19 -7 14 0 22 2 19 5 -8 8 -34 10 -38 2z"/>
<path d="M3530 10080 c0 -5 5 -10 10 -10 6 0 10 5 10 10 0 6 -4 10 -10 10 -5
0 -10 -4 -10 -10z"/>
<path d="M3457 10045 c3 -8 9 -12 14 -9 12 7 11 11 -5 17 -10 4 -13 1 -9 -8z"/>
<path d="M3259 10018 c-5 -18 -6 -38 -1 -34 7 8 12 36 6 36 -2 0 -4 -1 -5 -2z"/>
<path d="M3296 10007 c3 -10 9 -15 12 -12 3 3 0 11 -7 18 -10 9 -11 8 -5 -6z"/>
<path d="M3335 10009 c-4 -6 -5 -12 -2 -15 2 -3 7 2 10 11 7 17 1 20 -8 4z"/>
<path d="M3420 10009 c0 -5 -5 -7 -11 -3 -8 4 -8 1 0 -14 10 -18 41 -22 41 -5
0 3 -7 2 -16 -1 -12 -4 -14 -1 -9 14 4 11 4 20 1 20 -3 0 -6 -5 -6 -11z"/>
<path d="M3354 9980 c0 -13 4 -16 10 -10 7 7 7 13 0 20 -6 6 -10 3 -10 -10z"/>
<path d="M3135 9980 c3 -5 8 -10 11 -10 2 0 4 5 4 10 0 6 -5 10 -11 10 -5 0
-7 -4 -4 -10z"/>
<path d="M3285 9970 c-16 -7 -17 -9 -3 -9 9 -1 20 4 23 9 7 11 7 11 -20 0z"/>
<path d="M3326 9963 c-6 -14 -5 -15 5 -6 7 7 10 15 7 18 -3 3 -9 -2 -12 -12z"/>
<path d="M3380 9970 c0 -5 0 -13 1 -16 0 -4 -12 -15 -28 -26 -15 -11 -20 -18
-11 -14 11 3 21 -2 27 -12 6 -9 11 -12 11 -5 0 6 -5 15 -11 19 -8 4 -7 9 2 14
12 8 24 50 14 50 -3 0 -5 -4 -5 -10z"/>
<path d="M3401 9954 c0 -11 3 -14 6 -6 3 7 2 16 -1 19 -3 4 -6 -2 -5 -13z"/>
<path d="M3056 9935 c-9 -26 -7 -32 5 -12 6 10 9 21 6 23 -2 3 -7 -2 -11 -11z"/>
<path d="M3324 9936 c-10 -8 -17 -16 -14 -19 3 -2 14 4 24 14 23 22 18 25 -10
5z"/>
<path d="M3192 9906 c-16 -20 -16 -20 2 -6 10 8 25 15 33 16 24 4 27 13 4 11
-12 -1 -30 -10 -39 -21z"/>
<path d="M3278 9911 c13 -11 22 -23 22 -26 -1 -3 1 -11 4 -18 2 -6 4 -2 2 11
-1 12 -13 30 -27 38 l-24 16 23 -21z"/>
<path d="M3245 9900 c-10 -16 14 -50 30 -44 8 4 15 8 15 11 0 3 -7 2 -16 -1
-12 -5 -15 -2 -10 9 4 11 2 14 -6 9 -8 -5 -9 -2 -5 9 7 18 2 23 -8 7z"/>
<path d="M3135 9890 c-4 -6 -10 -8 -14 -6 -4 3 -7 -6 -7 -19 0 -14 1 -23 2
-22 1 1 2 5 1 8 -1 4 7 16 17 28 11 12 16 21 13 21 -3 0 -9 -5 -12 -10z"/>
<path d="M3066 9882 c-2 -4 4 -8 14 -8 10 0 16 4 14 8 -3 4 -9 8 -14 8 -5 0
-11 -4 -14 -8z"/>
<path d="M3154 9872 c-9 -14 -8 -18 6 -18 11 0 15 6 12 18 -2 10 -5 18 -6 18
-1 0 -6 -8 -12 -18z"/>
<path d="M3010 9860 c0 -5 5 -10 11 -10 5 0 7 5 4 10 -3 6 -8 10 -11 10 -2 0
-4 -4 -4 -10z"/>
<path d="M3196 9853 c-6 -14 -5 -15 5 -6 7 7 10 15 7 18 -3 3 -9 -2 -12 -12z"/>
<path d="M3235 9840 c3 -5 11 -10 16 -10 6 0 7 5 4 10 -3 6 -11 10 -16 10 -6
0 -7 -4 -4 -10z"/>
<path d="M3286 9835 c4 -8 10 -15 15 -15 4 0 6 7 3 15 -4 8 -10 15 -15 15 -4
0 -6 -7 -3 -15z"/>
<path d="M3215 9830 c6 -10 3 -12 -13 -8 -19 5 -20 3 -11 -13 5 -10 13 -19 16
-19 3 0 3 3 0 7 -4 3 1 11 10 18 13 9 13 14 3 20 -9 6 -11 4 -5 -5z"/>
<path d="M3103 9816 c-3 -6 -3 -8 2 -4 4 4 13 0 20 -9 9 -13 14 -13 20 -3 6 9
4 11 -5 5 -9 -6 -12 -4 -8 7 7 17 -19 21 -29 4z"/>
<path d="M3264 9815 c-4 -8 -10 -15 -16 -15 -5 0 -6 5 -2 12 4 7 3 8 -5 4 -6
-4 -9 -11 -6 -16 3 -4 -2 -11 -11 -14 -9 -4 -14 -9 -11 -12 7 -8 54 24 61 42
3 8 3 14 0 14 -2 0 -7 -7 -10 -15z"/>
<path d="M2995 9809 c-4 -6 -5 -12 -2 -15 2 -3 7 2 10 11 7 17 1 20 -8 4z"/>
<path d="M3053 9805 c0 -8 3 -13 5 -10 3 3 10 0 17 -5 8 -7 12 -5 12 5 0 8 -3
13 -5 10 -3 -3 -10 0 -17 5 -8 7 -12 5 -12 -5z"/>
<path d="M2935 9800 c3 -5 8 -10 11 -10 2 0 4 5 4 10 0 6 -5 10 -11 10 -5 0
-7 -4 -4 -10z"/>
<path d="M3160 9795 c-7 -9 -11 -17 -9 -20 3 -2 10 5 17 15 14 24 10 26 -8 5z"/>
<path d="M3109 9771 c6 -10 7 -22 3 -26 -4 -5 -1 -5 6 -1 9 5 9 12 2 27 -6 10
-13 19 -16 19 -2 0 0 -8 5 -19z"/>
<path d="M3168 9765 c-6 -13 -15 -22 -20 -19 -11 7 -22 -22 -14 -42 6 -16 8
-16 24 0 26 23 39 20 17 -4 -13 -15 -14 -19 -4 -15 19 7 41 43 30 49 -5 3 -20
-4 -35 -15 l-26 -20 0 21 c0 12 5 18 10 15 6 -3 13 1 16 9 3 9 10 13 15 10 5
-3 6 3 2 12 -5 13 -3 15 7 9 9 -5 11 -4 6 3 -10 17 -15 15 -28 -13z"/>
<path d="M2996 9758 c3 -5 10 -6 15 -3 13 9 11 12 -6 12 -8 0 -12 -4 -9 -9z"/>
<path d="M3070 9748 c-10 -21 -10 -21 3 -6 8 10 18 14 22 10 5 -4 5 -1 1 6
-10 17 -14 15 -26 -10z"/>
<path d="M2930 9739 c0 -5 5 -7 10 -4 6 3 10 8 10 11 0 2 -4 4 -10 4 -5 0 -10
-5 -10 -11z"/>
<path d="M3026 9742 c-3 -5 1 -9 9 -9 8 0 12 4 9 9 -3 4 -7 8 -9 8 -2 0 -6 -4
-9 -8z"/>
<path d="M3100 9710 c-6 -11 -8 -20 -6 -20 3 0 10 9 16 20 6 11 8 20 6 20 -3
0 -10 -9 -16 -20z"/>
<path d="M3000 9695 c-7 -8 -16 -13 -20 -10 -5 3 -11 2 -14 -3 -10 -17 24 -8
41 10 9 10 14 18 11 18 -3 0 -11 -7 -18 -15z"/>
<path d="M3067 9689 c4 -13 8 -18 11 -10 2 7 -1 18 -6 23 -8 8 -9 4 -5 -13z"/>
<path d="M3094 9669 c3 -15 36 -21 36 -7 0 6 -6 8 -14 5 -8 -3 -17 -2 -20 4
-2 5 -3 4 -2 -2z"/>
<path d="M2856 9658 c3 -5 10 -6 15 -3 13 9 11 12 -6 12 -8 0 -12 -4 -9 -9z"/>
<path d="M3056 9642 c0 -21 6 -27 25 -29 20 -1 21 -1 3 3 -15 4 -20 11 -17 23
3 10 1 21 -4 24 -5 3 -8 -7 -7 -21z"/>
<path d="M2969 9643 c-13 -16 -12 -17 4 -4 9 7 17 15 17 17 0 8 -8 3 -21 -13z"/>
<path d="M2994 9632 c-9 -14 -8 -18 6 -18 11 0 15 6 12 18 -2 10 -5 18 -6 18
-1 0 -6 -8 -12 -18z"/>
<path d="M3135 9640 c-4 -6 -11 -8 -16 -5 -5 4 -9 1 -9 -4 0 -16 16 -13 30 4
7 8 10 15 7 15 -3 0 -9 -5 -12 -10z"/>
<path d="M2916 9607 c3 -10 9 -15 12 -12 3 3 0 11 -7 18 -10 9 -11 8 -5 -6z"/>
<path d="M2940 9606 c0 -2 8 -10 18 -17 15 -13 16 -12 3 4 -13 16 -21 21 -21
13z"/>
<path d="M3022 9602 c-8 -6 -2 -9 18 -9 20 0 26 3 18 9 -7 4 -15 8 -18 8 -3 0
-11 -4 -18 -8z"/>
<path d="M3032 9564 c-7 -8 -8 -14 -3 -14 10 0 25 19 20 25 -2 1 -10 -3 -17
-11z"/>
<path d="M2875 9541 c-3 -5 -2 -12 3 -15 5 -3 9 1 9 9 0 17 -3 19 -12 6z"/>
<path d="M2993 9528 c-2 -18 0 -20 7 -8 12 18 13 30 2 30 -4 0 -9 -10 -9 -22z"/>
<path d="M2913 9523 c4 -3 1 -13 -6 -22 -11 -14 -10 -14 6 -2 20 15 22 31 5
31 -6 0 -8 -3 -5 -7z"/>
<path d="M2816 9502 c-3 -5 1 -9 9 -9 8 0 12 4 9 9 -3 4 -7 8 -9 8 -2 0 -6 -4
-9 -8z"/>
<path d="M2856 9498 c3 -4 11 -5 19 -1 21 7 19 12 -4 10 -11 0 -18 -5 -15 -9z"/>
<path d="M2929 9483 c-8 -9 -9 -14 -2 -10 6 4 13 1 16 -5 3 -7 4 -3 4 10 -1
26 -1 26 -18 5z"/>
<path d="M2907 9460 c6 -8 9 -23 8 -32 -2 -10 0 -20 4 -23 14 -8 6 44 -9 57
-12 11 -12 10 -3 -2z"/>
<path d="M2710 9440 c0 -5 5 -10 11 -10 5 0 7 5 4 10 -3 6 -8 10 -11 10 -2 0
-4 -4 -4 -10z"/>
<path d="M2829 9363 c-13 -16 -12 -17 4 -4 9 7 17 15 17 17 0 8 -8 3 -21 -13z"/>
<path d="M2810 9259 c0 -5 5 -7 10 -4 6 3 10 8 10 11 0 2 -4 4 -10 4 -5 0 -10
-5 -10 -11z"/>
</g>
</svg>
